<svg xmlns="http://www.w3.org/2000/svg" xmlns:xlink="http://www.w3.org/1999/xlink" width="1563" zoomAndPan="magnify" viewBox="0 0 1172.25 509.249984" height="679" preserveAspectRatio="xMidYMid meet" version="1.0"><defs><g/><clipPath id="fe7baa9c17"><path d="M 760.375 0 L 1169.269531 0 L 1169.269531 273 L 760.375 273 Z M 760.375 0 " clip-rule="nonzero"/></clipPath><clipPath id="aec9e3851e"><path d="M 0.488281 163 L 821 163 L 821 439 L 0.488281 439 Z M 0.488281 163 " clip-rule="nonzero"/></clipPath><clipPath id="ec81eaa036"><rect x="0" width="821" y="0" height="276"/></clipPath><clipPath id="5ba1dcd303"><path d="M 921 235 L 1155 235 L 1155 508.5 L 921 508.5 Z M 921 235 " clip-rule="nonzero"/></clipPath><clipPath id="e4379e34a2"><path d="M 2 115 L 120 115 L 120 273.5 L 2 273.5 Z M 2 115 " clip-rule="nonzero"/></clipPath><clipPath id="f0f4f31389"><rect x="0" width="234" y="0" height="274"/></clipPath><clipPath id="f95701802d"><path d="M 821 228 L 931 228 L 931 508.5 L 821 508.5 Z M 821 228 " clip-rule="nonzero"/></clipPath><clipPath id="e6bbb60f0f"><rect x="0" width="110" y="0" height="281"/></clipPath><clipPath id="c8744e6ff8"><rect x="0" width="128" y="0" height="282"/></clipPath></defs><path fill="#f6f4f1" d="M 799.734375 185.875 C 799.734375 185.875 864.121094 76.828125 963.820312 92.40625 C 1063.515625 107.984375 1129.980469 185.875 1129.980469 185.875 C 1129.980469 185.875 1007.957031 255.972656 979.914062 262.203125 C 951.875 268.4375 845.945312 242.472656 799.734375 185.875 Z M 799.734375 185.875 " fill-opacity="1" fill-rule="nonzero"/><path fill="#00bbc9" d="M 1045.34375 174.449219 C 1045.34375 175.785156 1045.308594 177.117188 1045.246094 178.449219 C 1045.179688 179.78125 1045.082031 181.113281 1044.949219 182.441406 C 1044.820312 183.769531 1044.65625 185.09375 1044.460938 186.410156 C 1044.265625 187.730469 1044.035156 189.046875 1043.777344 190.355469 C 1043.515625 191.664062 1043.222656 192.964844 1042.898438 194.257812 C 1042.574219 195.554688 1042.21875 196.839844 1041.832031 198.113281 C 1041.445312 199.390625 1041.027344 200.660156 1040.578125 201.914062 C 1040.128906 203.171875 1039.648438 204.414062 1039.136719 205.648438 C 1038.625 206.878906 1038.085938 208.101562 1037.515625 209.304688 C 1036.945312 210.511719 1036.34375 211.703125 1035.714844 212.878906 C 1035.085938 214.058594 1034.429688 215.21875 1033.742188 216.363281 C 1033.058594 217.507812 1032.34375 218.632812 1031.601562 219.742188 C 1030.863281 220.851562 1030.09375 221.941406 1029.300781 223.011719 C 1028.503906 224.085938 1027.683594 225.136719 1026.835938 226.167969 C 1025.992188 227.199219 1025.121094 228.210938 1024.222656 229.199219 C 1023.328125 230.1875 1022.40625 231.152344 1021.464844 232.097656 C 1020.519531 233.039062 1019.554688 233.960938 1018.566406 234.855469 C 1017.578125 235.75 1016.566406 236.621094 1015.535156 237.46875 C 1014.503906 238.316406 1013.453125 239.136719 1012.382812 239.929688 C 1011.3125 240.726562 1010.21875 241.492188 1009.109375 242.234375 C 1008 242.976562 1006.875 243.6875 1005.730469 244.375 C 1004.585938 245.0625 1003.425781 245.71875 1002.25 246.347656 C 1001.070312 246.976562 999.878906 247.574219 998.675781 248.148438 C 997.46875 248.71875 996.25 249.257812 995.015625 249.769531 C 993.785156 250.277344 992.539062 250.757812 991.285156 251.207031 C 990.027344 251.65625 988.761719 252.074219 987.484375 252.464844 C 986.207031 252.851562 984.921875 253.207031 983.628906 253.53125 C 982.332031 253.855469 981.03125 254.148438 979.722656 254.40625 C 978.414062 254.667969 977.101562 254.894531 975.78125 255.089844 C 974.460938 255.285156 973.136719 255.449219 971.808594 255.582031 C 970.480469 255.710938 969.152344 255.808594 967.820312 255.875 C 966.488281 255.941406 965.152344 255.972656 963.820312 255.972656 C 962.484375 255.972656 961.152344 255.941406 959.820312 255.875 C 958.484375 255.808594 957.15625 255.710938 955.828125 255.582031 C 954.5 255.449219 953.175781 255.285156 951.855469 255.089844 C 950.539062 254.894531 949.222656 254.667969 947.914062 254.40625 C 946.605469 254.148438 945.304688 253.855469 944.011719 253.53125 C 942.714844 253.207031 941.429688 252.851562 940.152344 252.464844 C 938.878906 252.074219 937.609375 251.65625 936.355469 251.207031 C 935.097656 250.757812 933.855469 250.277344 932.621094 249.769531 C 931.386719 249.257812 930.167969 248.71875 928.964844 248.148438 C 927.757812 247.574219 926.566406 246.976562 925.390625 246.347656 C 924.210938 245.71875 923.050781 245.0625 921.90625 244.375 C 920.761719 243.6875 919.636719 242.976562 918.527344 242.234375 C 917.417969 241.492188 916.328125 240.726562 915.253906 239.929688 C 914.183594 239.136719 913.132812 238.316406 912.101562 237.46875 C 911.070312 236.621094 910.058594 235.75 909.070312 234.855469 C 908.082031 233.960938 907.117188 233.039062 906.171875 232.097656 C 905.230469 231.152344 904.308594 230.1875 903.414062 229.199219 C 902.519531 228.210938 901.648438 227.199219 900.800781 226.167969 C 899.953125 225.136719 899.132812 224.085938 898.339844 223.011719 C 897.542969 221.941406 896.777344 220.851562 896.035156 219.742188 C 895.292969 218.632812 894.578125 217.507812 893.894531 216.363281 C 893.207031 215.21875 892.550781 214.058594 891.921875 212.878906 C 891.292969 211.703125 890.691406 210.511719 890.121094 209.304688 C 889.550781 208.101562 889.011719 206.878906 888.5 205.648438 C 887.992188 204.414062 887.511719 203.171875 887.0625 201.914062 C 886.613281 200.660156 886.191406 199.390625 885.804688 198.113281 C 885.417969 196.839844 885.0625 195.554688 884.738281 194.257812 C 884.414062 192.964844 884.121094 191.664062 883.863281 190.355469 C 883.601562 189.046875 883.375 187.730469 883.175781 186.414062 C 882.980469 185.09375 882.820312 183.769531 882.6875 182.441406 C 882.558594 181.113281 882.457031 179.78125 882.394531 178.449219 C 882.328125 177.117188 882.296875 175.785156 882.296875 174.449219 C 882.296875 173.117188 882.328125 171.78125 882.394531 170.449219 C 882.457031 169.117188 882.558594 167.789062 882.6875 166.460938 C 882.820312 165.132812 882.980469 163.808594 883.175781 162.488281 C 883.375 161.167969 883.601562 159.855469 883.863281 158.546875 C 884.121094 157.238281 884.414062 155.9375 884.738281 154.640625 C 885.0625 153.347656 885.417969 152.0625 885.804688 150.785156 C 886.191406 149.507812 886.613281 148.242188 887.0625 146.984375 C 887.511719 145.730469 887.992188 144.484375 888.5 143.253906 C 889.011719 142.019531 889.550781 140.800781 890.121094 139.59375 C 890.691406 138.386719 891.292969 137.195312 891.921875 136.019531 C 892.550781 134.84375 893.207031 133.683594 893.894531 132.539062 C 894.578125 131.394531 895.292969 130.265625 896.035156 129.15625 C 896.777344 128.046875 897.542969 126.957031 898.339844 125.886719 C 899.132812 124.816406 899.953125 123.761719 900.800781 122.730469 C 901.648438 121.699219 902.519531 120.691406 903.414062 119.703125 C 904.308594 118.714844 905.230469 117.746094 906.171875 116.804688 C 907.117188 115.859375 908.082031 114.941406 909.070312 114.046875 C 910.058594 113.148438 911.070312 112.277344 912.101562 111.429688 C 913.132812 110.585938 914.183594 109.765625 915.253906 108.96875 C 916.328125 108.175781 917.417969 107.40625 918.527344 106.664062 C 919.636719 105.925781 920.761719 105.210938 921.90625 104.523438 C 923.050781 103.839844 924.210938 103.183594 925.390625 102.554688 C 926.566406 101.921875 927.757812 101.324219 928.964844 100.753906 C 930.167969 100.183594 931.386719 99.644531 932.621094 99.132812 C 933.855469 98.621094 935.097656 98.140625 936.355469 97.691406 C 937.609375 97.242188 938.878906 96.824219 940.152344 96.4375 C 941.429688 96.050781 942.714844 95.695312 944.011719 95.371094 C 945.304688 95.046875 946.605469 94.753906 947.914062 94.492188 C 949.222656 94.234375 950.539062 94.003906 951.855469 93.808594 C 953.175781 93.613281 954.5 93.449219 955.828125 93.320312 C 957.15625 93.1875 958.484375 93.089844 959.820312 93.023438 C 961.152344 92.960938 962.484375 92.925781 963.820312 92.925781 C 965.152344 92.925781 966.488281 92.960938 967.820312 93.023438 C 969.152344 93.089844 970.480469 93.1875 971.808594 93.320312 C 973.136719 93.449219 974.460938 93.613281 975.78125 93.808594 C 977.101562 94.003906 978.414062 94.234375 979.722656 94.492188 C 981.03125 94.753906 982.332031 95.046875 983.628906 95.371094 C 984.921875 95.695312 986.207031 96.050781 987.484375 96.4375 C 988.761719 96.824219 990.027344 97.242188 991.285156 97.691406 C 992.539062 98.140625 993.785156 98.621094 995.015625 99.132812 C 996.25 99.644531 997.46875 100.183594 998.675781 100.753906 C 999.878906 101.324219 1001.070312 101.921875 1002.25 102.550781 C 1003.425781 103.183594 1004.585938 103.839844 1005.730469 104.523438 C 1006.875 105.210938 1008 105.925781 1009.109375 106.664062 C 1010.21875 107.40625 1011.3125 108.175781 1012.382812 108.96875 C 1013.453125 109.765625 1014.503906 110.585938 1015.535156 111.429688 C 1016.566406 112.277344 1017.578125 113.148438 1018.566406 114.046875 C 1019.554688 114.941406 1020.519531 115.859375 1021.464844 116.804688 C 1022.40625 117.746094 1023.328125 118.714844 1024.222656 119.703125 C 1025.121094 120.691406 1025.992188 121.699219 1026.835938 122.730469 C 1027.683594 123.761719 1028.503906 124.816406 1029.300781 125.886719 C 1030.09375 126.957031 1030.863281 128.046875 1031.601562 129.15625 C 1032.34375 130.265625 1033.058594 131.394531 1033.742188 132.539062 C 1034.429688 133.683594 1035.085938 134.84375 1035.714844 136.019531 C 1036.34375 137.195312 1036.945312 138.386719 1037.515625 139.59375 C 1038.085938 140.800781 1038.625 142.019531 1039.136719 143.253906 C 1039.648438 144.484375 1040.128906 145.730469 1040.578125 146.984375 C 1041.027344 148.242188 1041.445312 149.507812 1041.832031 150.785156 C 1042.21875 152.0625 1042.574219 153.347656 1042.898438 154.640625 C 1043.222656 155.9375 1043.515625 157.238281 1043.777344 158.546875 C 1044.035156 159.855469 1044.265625 161.167969 1044.460938 162.488281 C 1044.65625 163.808594 1044.820312 165.132812 1044.949219 166.460938 C 1045.082031 167.789062 1045.179688 169.117188 1045.246094 170.449219 C 1045.308594 171.78125 1045.34375 173.117188 1045.34375 174.449219 Z M 1045.34375 174.449219 " fill-opacity="1" fill-rule="nonzero"/><path fill="#cacaca" d="M 964.339844 18.152344 C 873.15625 18.152344 799.214844 79.011719 799.214844 154.199219 C 799.214844 158.351562 799.421875 162.402344 799.835938 166.453125 C 807.832031 158.144531 818.945312 147.34375 832.445312 136.441406 C 871.390625 104.871094 910.335938 87.421875 948.242188 84.515625 C 986.457031 81.503906 1031.011719 97.183594 1080.757812 130.832031 C 1100.800781 144.4375 1117.519531 158.25 1128.632812 168.011719 C 1129.152344 163.441406 1129.460938 158.871094 1129.460938 154.304688 C 1129.460938 79.113281 1055.625 18.152344 964.339844 18.152344 Z M 964.339844 18.152344 " fill-opacity="1" fill-rule="nonzero"/><g clip-path="url(#fe7baa9c17)"><path fill="#2b2b2b" d="M 1130.1875 164.167969 L 1169.339844 137.375 L 1154.074219 115.046875 L 1108.691406 146.097656 C 1100.488281 139.660156 1091.140625 132.597656 1080.859375 125.640625 C 1080.238281 125.222656 1079.613281 124.808594 1078.992188 124.394531 L 1129.253906 66.546875 L 1108.898438 48.789062 L 1055.726562 109.855469 C 1047.628906 105.179688 1039.628906 101.027344 1031.839844 97.390625 L 1055.207031 17.738281 L 1029.347656 10.261719 L 1006.605469 87.527344 C 993.625 83.269531 981.058594 80.566406 969.117188 79.53125 L 966.414062 0.0820312 L 939.414062 1.019531 L 942.113281 79.945312 C 932.144531 81.085938 922.175781 83.269531 912.101562 86.488281 L 880.011719 17.738281 L 855.5 29.160156 L 886.863281 96.457031 C 878.140625 100.613281 869.523438 105.390625 860.796875 110.894531 L 817.699219 62.1875 L 797.449219 80.152344 L 838.574219 126.46875 C 836.601562 128.027344 834.523438 129.585938 832.550781 131.246094 C 826.839844 135.816406 821.644531 140.386719 816.867188 144.75 L 775.847656 116.085938 L 760.375 138.308594 L 797.242188 164.066406 C 789.972656 171.855469 785.921875 176.941406 785.503906 177.460938 L 777.09375 188.054688 L 787.582031 196.464844 C 791.632812 199.6875 884.371094 272.902344 963.300781 272.902344 C 965.792969 272.902344 968.285156 272.796875 970.777344 272.695312 C 1004.425781 270.617188 1043.472656 257.117188 1086.988281 232.503906 C 1118.871094 214.433594 1140.988281 197.195312 1141.925781 196.464844 L 1153.972656 187.015625 L 1143.171875 176.214844 C 1142.753906 175.800781 1138.082031 171.125 1130.1875 164.167969 Z M 969.21875 245.691406 C 913.660156 249.121094 843.039062 203.21875 815.933594 183.691406 C 836.601562 161.363281 889.667969 110.894531 950.421875 106.21875 C 1011.796875 101.441406 1084.597656 159.808594 1112.429688 184.628906 C 1086.050781 203.007812 1023.84375 242.265625 969.21875 245.691406 Z M 969.21875 245.691406 " fill-opacity="1" fill-rule="nonzero"/></g><path fill="#f6f4f1" d="M 922.796875 128.234375 C 920.410156 132.078125 918.4375 135.921875 916.671875 139.972656 C 914.90625 143.917969 913.449219 147.96875 912.308594 152.019531 C 909.917969 160.117188 908.777344 168.425781 908.984375 176.734375 C 909.191406 185.042969 910.648438 193.351562 913.242188 201.453125 C 915.734375 209.65625 919.164062 217.652344 922.796875 225.855469 C 916.253906 219.625 910.957031 212.148438 907.117188 203.839844 C 903.167969 195.53125 900.886719 186.289062 900.675781 176.941406 C 900.367188 167.597656 902.339844 158.144531 906.179688 149.734375 C 908.050781 145.476562 910.4375 141.527344 913.242188 137.894531 C 914.59375 136.023438 916.152344 134.363281 917.707031 132.703125 C 919.265625 131.144531 920.929688 129.585938 922.796875 128.234375 Z M 922.796875 128.234375 " fill-opacity="1" fill-rule="nonzero"/><g clip-path="url(#aec9e3851e)"><g transform="matrix(1, 0, 0, 1, -0.000000000000000056, 163)"><g clip-path="url(#ec81eaa036)"><g fill="#2b2b2b" fill-opacity="1"><g transform="translate(-4.138312, 216.992496)"><g><path d="M 125.9375 -52.796875 L 164.109375 -52.796875 C 160.597656 -42.128906 155.109375 -32.644531 147.640625 -24.34375 C 140.179688 -16.039062 131.347656 -9.523438 121.140625 -4.796875 C 110.929688 -0.078125 99.882812 2.28125 88 2.28125 C 77.03125 2.28125 66.707031 0.222656 57.03125 -3.890625 C 47.351562 -8.003906 38.816406 -13.753906 31.421875 -21.140625 C 24.035156 -28.535156 18.285156 -37.066406 14.171875 -46.734375 C 10.054688 -56.410156 8 -66.738281 8 -77.71875 C 8 -88.6875 10.054688 -99.003906 14.171875 -108.671875 C 18.285156 -118.347656 24.035156 -126.878906 31.421875 -134.265625 C 38.816406 -141.660156 47.351562 -147.414062 57.03125 -151.53125 C 66.707031 -155.644531 77.03125 -157.703125 88 -157.703125 C 99.882812 -157.703125 110.890625 -155.335938 121.015625 -150.609375 C 131.148438 -145.890625 139.953125 -139.453125 147.421875 -131.296875 C 154.890625 -123.148438 160.375 -113.742188 163.875 -103.078125 L 125.703125 -103.078125 C 122.503906 -110.085938 117.398438 -115.609375 110.390625 -119.640625 C 103.378906 -123.679688 95.914062 -125.703125 88 -125.703125 C 79.613281 -125.703125 71.992188 -123.53125 65.140625 -119.1875 C 58.285156 -114.851562 52.835938 -109.066406 48.796875 -101.828125 C 44.753906 -94.585938 42.734375 -86.550781 42.734375 -77.71875 C 42.734375 -68.875 44.753906 -60.832031 48.796875 -53.59375 C 52.835938 -46.351562 58.285156 -40.5625 65.140625 -36.21875 C 71.992188 -31.882812 79.613281 -29.71875 88 -29.71875 C 96.070312 -29.71875 103.613281 -31.847656 110.625 -36.109375 C 117.632812 -40.378906 122.738281 -45.941406 125.9375 -52.796875 Z M 125.9375 -52.796875 "/></g></g></g><g fill="#2b2b2b" fill-opacity="1"><g transform="translate(153.085585, 216.992496)"><g><path d="M 70.625 -75.421875 C 66.351562 -75.421875 62.503906 -74.164062 59.078125 -71.65625 C 55.648438 -69.144531 52.945312 -65.984375 50.96875 -62.171875 C 48.988281 -58.359375 48 -54.394531 48 -50.28125 L 48 0 L 13.71875 0 L 13.71875 -100.796875 L 48 -100.796875 L 48 -88.453125 C 50.59375 -92.265625 54.097656 -95.65625 58.515625 -98.625 C 62.929688 -101.59375 68.265625 -103.078125 74.515625 -103.078125 C 76.035156 -103.078125 77.785156 -102.882812 79.765625 -102.5 C 81.742188 -102.125 83.421875 -101.554688 84.796875 -100.796875 L 84.796875 -69.71875 L 84.34375 -69.71875 C 82.664062 -71.84375 80.609375 -73.320312 78.171875 -74.15625 C 75.734375 -75 73.21875 -75.421875 70.625 -75.421875 Z M 70.625 -75.421875 "/></g></g></g><g fill="#2b2b2b" fill-opacity="1"><g transform="translate(227.600649, 216.992496)"><g/></g></g><g fill="#2b2b2b" fill-opacity="1"><g transform="translate(272.160915, 216.992496)"><g/></g></g><g fill="#2b2b2b" fill-opacity="1"><g transform="translate(316.721181, 216.992496)"><g/></g></g><g fill="#2b2b2b" fill-opacity="1"><g transform="translate(361.300323, 216.992496)"><g><path d="M 92.5625 -50.28125 C 92.5625 -54.695312 91.492188 -58.8125 89.359375 -62.625 C 87.234375 -66.4375 84.378906 -69.519531 80.796875 -71.875 C 77.210938 -74.238281 73.132812 -75.421875 68.5625 -75.421875 C 64 -75.421875 59.925781 -74.238281 56.34375 -71.875 C 52.757812 -69.519531 49.898438 -66.4375 47.765625 -62.625 C 45.628906 -58.8125 44.5625 -54.695312 44.5625 -50.28125 C 44.5625 -45.863281 45.628906 -41.75 47.765625 -37.9375 C 49.898438 -34.132812 52.757812 -31.050781 56.34375 -28.6875 C 59.925781 -26.320312 64 -25.140625 68.5625 -25.140625 C 73.132812 -25.140625 77.210938 -26.320312 80.796875 -28.6875 C 84.378906 -31.050781 87.234375 -34.132812 89.359375 -37.9375 C 91.492188 -41.75 92.5625 -45.863281 92.5625 -50.28125 Z M 126.859375 -100.5625 L 126.859375 0 L 92.5625 0 L 92.5625 -12.109375 C 89.21875 -6.929688 84.226562 -3.238281 77.59375 -1.03125 C 70.96875 1.175781 64.457031 2.28125 58.0625 2.28125 C 48.613281 2.28125 40.078125 -0.15625 32.453125 -5.03125 C 24.835938 -9.90625 18.859375 -16.34375 14.515625 -24.34375 C 10.171875 -32.34375 8 -40.988281 8 -50.28125 C 8 -59.570312 10.171875 -68.21875 14.515625 -76.21875 C 18.859375 -84.21875 24.835938 -90.691406 32.453125 -95.640625 C 40.078125 -100.597656 48.613281 -103.078125 58.0625 -103.078125 C 64.457031 -103.078125 70.703125 -102.007812 76.796875 -99.875 C 82.890625 -97.75 88.144531 -93.941406 92.5625 -88.453125 L 92.5625 -100.5625 Z M 126.859375 -100.5625 "/></g></g></g><g fill="#2b2b2b" fill-opacity="1"><g transform="translate(489.272814, 216.992496)"><g><path d="M 56.90625 -74.28125 L 56.90625 0 L 22.859375 0 L 22.859375 -74.28125 L 4.578125 -74.28125 L 4.578125 -100.796875 L 22.859375 -100.796875 L 22.859375 -139.1875 L 56.90625 -139.1875 L 56.90625 -100.796875 L 75.203125 -100.796875 L 75.203125 -74.28125 Z M 56.90625 -74.28125 "/></g></g></g><g fill="#2b2b2b" fill-opacity="1"><g transform="translate(556.457248, 216.992496)"><g><path d="M 11.890625 -135.3125 C 11.890625 -140.945312 13.832031 -145.707031 17.71875 -149.59375 C 21.601562 -153.476562 26.363281 -155.421875 32 -155.421875 C 37.488281 -155.421875 42.210938 -153.476562 46.171875 -149.59375 C 50.128906 -145.707031 52.109375 -140.945312 52.109375 -135.3125 C 52.109375 -129.820312 50.128906 -125.097656 46.171875 -121.140625 C 42.210938 -117.179688 37.488281 -115.203125 32 -115.203125 C 26.363281 -115.203125 21.601562 -117.179688 17.71875 -121.140625 C 13.832031 -125.097656 11.890625 -129.820312 11.890625 -135.3125 Z M 49.140625 0 L 14.859375 0 L 14.859375 -100.796875 L 49.140625 -100.796875 Z M 49.140625 0 "/></g></g></g><g fill="#2b2b2b" fill-opacity="1"><g transform="translate(607.873358, 216.992496)"><g><path d="M 114.96875 -100.796875 L 76.5625 0 L 36.109375 0 L -2.28125 -100.796875 L 32.234375 -100.796875 L 56.21875 -28.796875 L 80.21875 -100.796875 Z M 114.96875 -100.796875 "/></g></g></g><g fill="#2b2b2b" fill-opacity="1"><g transform="translate(707.965625, 216.992496)"><g><path d="M 103.765625 -31.078125 L 103.765625 0 L 13.71875 0 L 13.71875 -155.421875 L 103.765625 -155.421875 L 103.765625 -124.34375 L 48 -124.34375 L 48 -93.484375 L 101.484375 -93.484375 L 101.484375 -62.390625 L 48 -62.390625 L 48 -31.078125 Z M 103.765625 -31.078125 "/></g></g></g></g></g></g><g clip-path="url(#5ba1dcd303)"><g transform="matrix(1, 0, 0, 1, 921, 235)"><g clip-path="url(#f0f4f31389)"><g clip-path="url(#e4379e34a2)"><g fill="#cacaca" fill-opacity="1"><g transform="translate(4.896211, 216.351366)"><g><path d="M 54.625 57.140625 L 18.96875 57.140625 L 41.828125 0 L 36.109375 0 L -2.28125 -100.796875 L 32.234375 -100.796875 L 56.21875 -28.796875 L 80.21875 -100.796875 L 114.96875 -100.796875 L 76.5625 0 Z M 54.625 57.140625 "/></g></g></g></g><g fill="#cacaca" fill-opacity="1"><g transform="translate(104.988478, 216.351366)"><g><path d="M 44.796875 -62.390625 L 89.828125 -62.390625 C 89.828125 -62.390625 89.632812 -63.34375 89.25 -65.25 C 88.875 -67.15625 87.960938 -69.328125 86.515625 -71.765625 C 85.066406 -74.203125 82.816406 -76.375 79.765625 -78.28125 C 76.722656 -80.1875 72.609375 -81.140625 67.421875 -81.140625 C 62.085938 -81.140625 57.894531 -80.1875 54.84375 -78.28125 C 51.800781 -76.375 49.554688 -74.203125 48.109375 -71.765625 C 46.660156 -69.328125 45.742188 -67.15625 45.359375 -65.25 C 44.984375 -63.34375 44.796875 -62.390625 44.796875 -62.390625 Z M 122.734375 -52.5625 C 122.734375 -51.5 122.695312 -50.429688 122.625 -49.359375 C 122.550781 -48.296875 122.515625 -47.234375 122.515625 -46.171875 L 44.34375 -46.171875 C 44.34375 -42.359375 45.21875 -38.582031 46.96875 -34.84375 C 48.71875 -31.113281 51.226562 -28.066406 54.5 -25.703125 C 57.78125 -23.347656 61.628906 -22.171875 66.046875 -22.171875 C 72.148438 -22.171875 76.953125 -23.804688 80.453125 -27.078125 C 83.960938 -30.359375 85.789062 -33.828125 85.9375 -37.484375 L 120.90625 -37.484375 C 118.007812 -24.222656 111.609375 -14.28125 101.703125 -7.65625 C 91.804688 -1.03125 80.148438 2.28125 66.734375 2.28125 C 55.160156 2.28125 44.953125 0.109375 36.109375 -4.234375 C 27.273438 -8.578125 20.378906 -14.671875 15.421875 -22.515625 C 10.472656 -30.359375 8 -39.613281 8 -50.28125 C 8 -60.789062 10.550781 -70.007812 15.65625 -77.9375 C 20.757812 -85.863281 27.726562 -92.035156 36.5625 -96.453125 C 45.40625 -100.867188 55.460938 -103.078125 66.734375 -103.078125 C 76.941406 -103.078125 86.273438 -101.097656 94.734375 -97.140625 C 103.191406 -93.179688 109.972656 -87.46875 115.078125 -80 C 120.179688 -72.53125 122.734375 -63.382812 122.734375 -52.5625 Z M 122.734375 -52.5625 "/></g></g></g></g></g></g><g clip-path="url(#f95701802d)"><g transform="matrix(1, 0, 0, 1, 821, 228)"><g clip-path="url(#e6bbb60f0f)"><g fill="#cacaca" fill-opacity="1"><g transform="translate(109.597529, 60.27293)"><g><path d="M -106.34375 31.859375 L -106.34375 0 L -14.0625 0 L -14.0625 159.296875 L -106.34375 159.296875 L -106.34375 127.4375 L -49.1875 127.4375 L -49.1875 95.8125 L -104 95.8125 L -104 63.953125 L -49.1875 63.953125 L -49.1875 31.859375 Z M -106.34375 31.859375 "/></g></g></g></g></g></g><g transform="matrix(1, 0, 0, 1, 245, 217)"><g clip-path="url(#c8744e6ff8)"><g fill="#2b2b2b" fill-opacity="1"><g transform="translate(127.302947, 60.382036)"><g><path d="M -45.90625 63.953125 L -92.0625 63.953125 C -92.0625 63.953125 -91.863281 64.925781 -91.46875 66.875 C -91.082031 68.832031 -90.144531 71.054688 -88.65625 73.546875 C -87.175781 76.046875 -84.875 78.269531 -81.75 80.21875 C -78.625 82.175781 -74.410156 83.15625 -69.109375 83.15625 C -63.640625 83.15625 -59.34375 82.175781 -56.21875 80.21875 C -53.09375 78.269531 -50.785156 76.046875 -49.296875 73.546875 C -47.816406 71.054688 -46.878906 68.832031 -46.484375 66.875 C -46.097656 64.925781 -45.90625 63.953125 -45.90625 63.953125 Z M -125.796875 53.875 C -125.796875 52.78125 -125.753906 51.6875 -125.671875 50.59375 C -125.597656 49.5 -125.5625 48.40625 -125.5625 47.3125 L -45.4375 47.3125 C -45.4375 43.414062 -46.332031 39.550781 -48.125 35.71875 C -49.925781 31.894531 -52.503906 28.769531 -55.859375 26.34375 C -59.222656 23.925781 -63.171875 22.71875 -67.703125 22.71875 C -73.941406 22.71875 -78.859375 24.394531 -82.453125 27.75 C -86.046875 31.113281 -87.921875 34.671875 -88.078125 38.421875 L -123.921875 38.421875 C -120.953125 24.828125 -114.390625 14.632812 -104.234375 7.84375 C -94.085938 1.050781 -82.144531 -2.34375 -68.40625 -2.34375 C -56.53125 -2.34375 -46.0625 -0.117188 -37 4.328125 C -27.945312 8.785156 -20.882812 15.035156 -15.8125 23.078125 C -10.738281 31.117188 -8.203125 40.601562 -8.203125 51.53125 C -8.203125 62.3125 -10.816406 71.757812 -16.046875 79.875 C -21.273438 88 -28.414062 94.320312 -37.46875 98.84375 C -46.53125 103.375 -56.84375 105.640625 -68.40625 105.640625 C -78.863281 105.640625 -88.425781 103.609375 -97.09375 99.546875 C -105.757812 95.492188 -112.707031 89.640625 -117.9375 81.984375 C -123.175781 74.335938 -125.796875 64.96875 -125.796875 53.875 Z M -125.796875 53.875 "/></g></g></g></g></g></svg>